Coordinates
version=1
nRows=40
nColumns=30
inDegrees=yes

Units are S.I. units (second, meters, Newtons, ...)
Angles are in degrees.

endheader
time	floatyaw	floatroll	floatpitch	floatx	floaty	floatz	pro_sup_l	deviation_l	flexion_l	cmc_flexion_l	cmc_abduction_l	mp_flexion_l	ip_flexion_l	2mcp_flexion_l	2mcp_abduction_l	2pm_flexion_l	2md_flexion_l	3mcp_flexion_l	3mcp_abduction_l	3pm_flexion_l	3md_flexion_l	4mcp_flexion_l	4mcp_abduction_l	4pm_flexion_l	4md_flexion_l	5mcp_flexion_l	5mcp_abduction_l	5pm_flexion_l	5md_flexion_l
-0.495000	-160.147433	-5.066637	-73.570646	0.083699	-0.182641	-0.015876	101.461571	2.809714	-0.880210	15.269241	5.199728	-26.013691	-42.096624	31.441605	6.634574	42.135030	28.936242	23.873942	4.014802	45.249634	29.861220	12.401276	-4.408291	53.425931	37.012141	0.611406	-7.361594	63.489133	43.014775
-0.485000	-160.147433	-5.066637	-73.570646	0.083703	-0.182629	-0.015875	101.455143	2.811809	-0.868876	15.244699	5.200563	-26.001702	-42.078473	31.447453	6.629332	42.144973	28.943382	23.863618	4.015616	45.249960	29.861503	12.394414	-4.405896	53.415969	37.011098	0.619789	-7.371698	63.487382	43.011976
-0.475000	-160.147433	-5.066637	-73.570646	0.083710	-0.182612	-0.015874	101.458555	2.815925	-0.855542	15.226141	5.202229	-25.994410	-42.073952	31.447749	6.625904	42.148347	28.945049	23.853382	4.015061	45.246410	29.858662	12.386508	-4.403579	53.404058	37.011946	0.625892	-7.379920	63.484102	43.008137
-0.465000	-160.147433	-5.066637	-73.570646	0.083716	-0.182592	-0.015875	101.471483	2.818172	-0.841226	15.213785	5.216710	-25.994798	-42.081051	31.441388	6.626191	42.147964	28.943858	23.842567	4.013447	45.243835	29.856110	12.378972	-4.401590	53.392162	37.013655	0.628211	-7.386368	63.482482	43.005442
-0.455000	-160.147433	-5.066637	-73.570646	0.083719	-0.182568	-0.015884	101.493042	2.815248	-0.826029	15.207440	5.251378	-26.003672	-42.095389	31.429384	6.630405	42.149209	28.944047	23.830993	4.011823	45.245047	29.856110	12.373989	-4.400279	53.380879	37.014200	0.626814	-7.392519	63.484759	43.005307
-0.445000	-160.147433	-5.066637	-73.570646	0.083717	-0.182537	-0.015903	101.521886	2.806339	-0.808858	15.207110	5.303052	-26.020710	-42.114661	31.414645	6.637193	42.156101	28.948238	23.819474	4.011499	45.249222	29.858268	12.373434	-4.400348	53.370230	37.011755	0.622416	-7.399666	63.490952	43.007097
-0.435000	-160.147433	-5.066637	-73.570646	0.083706	-0.182498	-0.015937	101.555043	2.793893	-0.788173	15.212266	5.357867	-26.045099	-42.140419	31.401721	6.644369	42.168676	28.955473	23.809722	4.013522	45.252986	29.859999	12.378113	-4.402735	53.361207	37.006103	0.616102	-7.407640	63.498677	43.007902
-0.425000	-160.147433	-5.066637	-73.570646	0.083685	-0.182448	-0.015989	101.586548	2.782770	-0.763402	15.220269	5.397653	-26.075041	-42.175798	31.396052	6.649994	42.183383	28.961963	23.803640	4.018311	45.253688	29.858765	12.387679	-4.408072	53.356793	36.999336	0.610082	-7.414584	63.504096	43.003644
-0.415000	-160.147433	-5.066637	-73.570646	0.083651	-0.182389	-0.016061	101.607437	2.778173	-0.736133	15.225458	5.409037	-26.106655	-42.220791	31.402229	6.653324	42.196086	28.964035	23.802560	4.025461	45.252386	29.854378	12.401147	-4.416047	53.361215	36.995070	0.608403	-7.417647	63.503496	42.991019
-0.405000	-160.147433	-5.066637	-73.570646	0.083603	-0.182323	-0.016154	101.607959	2.783366	-0.710155	15.220130	5.389758	-26.133755	-42.268770	31.421636	6.655089	42.205298	28.961054	23.806959	4.033641	45.254010	29.849471	12.417444	-4.425106	53.377214	36.996246	0.616282	-7.414104	63.494708	42.969170
-0.395000	-160.147433	-5.066637	-73.570646	0.083540	-0.182254	-0.016268	101.581417	2.798365	-0.689924	15.197399	5.349000	-26.149754	-42.307533	31.450707	6.656991	42.212996	28.956014	23.816541	4.040559	45.264303	29.847755	12.435418	-4.432687	53.402653	37.002704	0.637853	-7.402653	63.477450	42.939986
-0.385000	-160.147433	-5.066637	-73.570646	0.083464	-0.182183	-0.016404	101.527784	2.820141	-0.677977	15.154447	5.302434	-26.151390	-42.325079	31.480932	6.660822	42.222333	28.953362	23.830048	4.043231	45.285602	29.851401	12.453282	-4.435933	53.428748	37.010182	0.673575	-7.384864	63.452234	42.906816
-0.375000	-160.147433	-5.066637	-73.570646	0.083374	-0.182104	-0.016566	101.454822	2.843819	-0.672614	15.094087	5.265099	-26.142098	-42.316742	31.500824	6.667718	42.234389	28.955880	23.844580	4.038902	45.314073	29.859358	12.468173	-4.432714	53.441671	37.011769	0.718754	-7.366415	63.418669	42.872683
-0.365000	-160.147433	-5.066637	-73.570646	0.083266	-0.182004	-0.016761	101.375541	2.863751	-0.667072	15.023320	5.245496	-26.132230	-42.289020	31.499171	6.677790	42.247237	28.963227	23.855175	4.026586	45.339816	29.867474	12.476798	-4.422707	53.427611	37.001348	0.764074	-7.357173	63.374878	42.839464
-0.355000	-160.147433	-5.066637	-73.570646	0.083132	-0.181861	-0.017007	101.302979	2.874066	-0.650557	14.949653	5.243457	-26.134901	-42.257474	31.468598	6.689991	42.259006	28.973436	23.855919	4.008485	45.349926	29.870157	12.477632	-4.408149	53.379323	36.977373	0.798413	-7.369011	63.319160	42.808597
-0.345000	-160.147433	-5.066637	-73.570646	0.082952	-0.181653	-0.017328	101.244656	2.869598	-0.610605	14.877602	5.252468	-26.159262	-42.239840	31.408312	6.702131	42.273399	28.986396	23.843167	3.990208	45.333619	29.862728	12.474074	-4.393691	53.300964	36.944813	0.813657	-7.411099	63.253219	42.782403
-0.335000	-160.147433	-5.066637	-73.570646	0.082704	-0.181356	-0.017755	101.198216	2.848406	-0.535832	14.807478	5.264624	-26.205433	-42.248448	31.324596	6.711093	42.303556	29.006779	23.819877	3.979159	45.287546	29.843403	12.476965	-4.384968	53.207990	36.913678	0.810195	-7.484050	63.184410	42.764254
-0.325000	-160.147433	-5.066637	-73.570646	0.082365	-0.180956	-0.018322	101.148122	2.815820	-0.418228	14.736214	5.274449	-26.264966	-42.286229	31.228029	6.713397	42.370294	29.043942	23.798626	3.981443	45.218719	29.813914	12.504672	-4.386066	53.120785	36.894016	0.800762	-7.576035	63.124736	42.756643
-0.315000	-160.147433	-5.066637	-73.570646	0.081912	-0.180443	-0.019065	101.063273	2.788035	-0.254624	14.658338	5.278717	-26.327262	-42.348132	31.128327	6.706223	42.493942	29.108092	23.800674	3.998644	45.143365	29.778556	12.579869	-4.396868	53.054373	36.889421	0.810090	-7.664265	63.087287	42.758379
-0.305000	-160.147433	-5.066637	-73.570646	0.081320	-0.179809	-0.020021	100.897383	2.792327	-0.047710	14.566280	5.273022	-26.387846	-42.426176	31.030046	6.688812	42.683818	29.204659	23.850095	4.026337	45.082244	29.742530	12.724059	-4.411761	53.009992	36.892756	0.869196	-7.723157	63.083893	42.763865
-0.295000	-160.147433	-5.066637	-73.570646	0.080563	-0.179051	-0.021224	100.595002	2.862004	0.192526	14.451790	5.248882	-26.452031	-42.513926	30.932519	6.663672	42.932057	29.330521	23.964895	4.055510	45.054532	29.710875	12.952453	-4.420944	52.974153	36.887506	1.005637	-7.736180	63.126109	42.766205
-0.285000	-160.147433	-5.066637	-73.570646	0.079606	-0.178160	-0.022700	100.104066	3.026937	0.446769	14.310328	5.194572	-26.530028	-42.606565	30.834374	6.636614	43.216354	29.474822	24.149281	4.076427	45.072529	29.688797	13.271742	-4.414345	52.926208	36.855478	1.234161	-7.704668	63.225620	42.761942
-0.275000	-160.147433	-5.066637	-73.570646	0.078407	-0.177125	-0.024459	99.391488	3.303485	0.684873	14.146365	5.099386	-26.626225	-42.696613	30.739314	6.615062	43.509899	29.623837	24.390893	4.082792	45.139399	29.683498	13.681496	-4.386508	52.849672	36.787893	1.553539	-7.647382	63.387191	42.752725
-0.265000	-160.147433	-5.066637	-73.570646	0.076917	-0.175922	-0.026495	98.454282	3.688728	0.867118	13.973442	4.957687	-26.731397	-42.770297	30.658601	6.605251	43.791398	29.766114	24.664127	4.073844	45.251480	29.706545	14.177681	-4.339675	52.739605	36.694118	1.952502	-7.590392	63.593491	42.741538
-0.255000	-160.147433	-5.066637	-73.570646	0.075076	-0.174516	-0.028789	97.318212	4.162127	0.950390	13.804364	4.768798	-26.826111	-42.811036	30.607731	6.609769	44.048263	29.893974	24.937808	4.053351	45.403335	29.773942	14.755689	-4.282911	52.600126	36.601992	2.420648	-7.553784	63.791708	42.726539
-0.245000	-160.147433	-5.066637	-73.570646	0.072816	-0.172858	-0.031323	96.021112	4.693733	0.899571	13.634709	4.532534	-26.895572	-42.811706	30.598173	6.626707	44.271884	30.000699	25.183950	4.026405	45.589859	29.900384	15.410642	-4.227441	52.432373	36.547120	2.954781	-7.543816	63.895884	42.698296
-0.235000	-160.147433	-5.066637	-73.570646	0.070065	-0.170893	-0.034089	94.587138	5.253976	0.700619	13.431141	4.245885	-26.946112	-42.788954	30.628015	6.650729	44.450478	30.076632	25.384068	3.996079	45.801419	30.087901	16.134268	-4.180973	52.221385	36.555210	3.553855	-7.554848	63.810930	42.643592
-0.225000	-160.147433	-5.066637	-73.570646	0.066754	-0.168584	-0.037089	93.005399	5.818405	0.368395	13.137571	3.907847	-27.009438	-42.787324	30.676495	6.675700	44.566829	30.108549	25.530521	3.961880	46.016100	30.315959	16.909988	-4.144646	51.934075	36.627456	4.205618	-7.578797	63.470370	42.553828
-0.215000	-160.147433	-5.066637	-73.570646	0.062827	-0.165931	-0.040333	91.225781	6.363753	-0.056844	12.704234	3.532527	-27.126723	-42.864073	30.706258	6.698121	44.604121	30.084358	25.623413	3.920777	46.198847	30.542683	17.710242	-4.114481	51.534098	36.738715	4.876766	-7.615400	62.870013	42.432990
-0.205000	-160.147433	-5.066637	-73.570646	0.058259	-0.162999	-0.043815	89.175852	6.858363	-0.524279	12.130988	3.159810	-27.318516	-43.058064	30.674318	6.720117	44.556849	30.001456	25.667630	3.870177	46.312677	30.720242	18.500159	-4.086112	51.006642	36.850849	5.518019	-7.676014	62.079710	42.300432
-0.195000	-160.147433	-5.066637	-73.570646	0.053049	-0.159907	-0.047512	86.790894	7.255105	-0.991553	11.503132	2.850576	-27.559989	-43.361092	30.548580	6.749814	44.440635	29.874869	25.674893	3.811052	46.336423	30.816570	19.248103	-4.059439	50.377702	36.934165	6.085267	-7.776930	61.224243	42.186074
-0.185000	-160.147433	-5.066637	-73.570646	0.047221	-0.156806	-0.051389	84.041378	7.492955	-1.438426	10.994133	2.665183	-27.782990	-43.714668	30.322433	6.796904	44.296561	29.741320	25.669599	3.749159	46.277750	30.830624	19.937902	-4.040281	49.715562	36.985058	6.564891	-7.924337	60.438561	42.118883
-0.175000	-160.147433	-5.066637	-73.570646	0.040812	-0.153843	-0.055407	80.943679	7.505675	-1.869365	10.821898	2.639192	-27.911041	-44.041517	30.017791	6.863576	44.188412	29.656148	25.689576	3.693131	46.173255	30.792752	20.574031	-4.038044	49.113369	37.030008	6.985151	-8.099711	59.816413	42.112838
-0.165000	-160.147433	-5.066637	-73.570646	0.033872	-0.151136	-0.059539	77.549418	7.229894	-2.305880	11.171418	2.771873	-27.908461	-44.295764	29.670565	6.935153	44.190779	29.680332	25.772149	3.649950	46.074831	30.750435	21.173575	-4.060424	48.660662	37.112627	7.403022	-8.256663	59.377261	42.156281
-0.155000	-160.147433	-5.066637	-73.570646	0.026460	-0.148766	-0.063778	73.920229	6.606306	-2.773401	12.120702	3.028206	-27.809536	-44.498607	29.301551	6.977238	44.365368	29.856992	25.924599	3.619949	46.027914	30.746498	21.746921	-4.107512	48.413216	37.268094	7.872704	-8.334823	59.068139	42.209143
-0.145000	-160.147433	-5.066637	-73.570646	0.018650	-0.146793	-0.068134	70.101558	5.575556	-3.287161	13.609207	3.341286	-27.702990	-44.732491	28.885439	6.943607	44.729379	30.183788	26.090334	3.594219	46.050924	30.799606	22.276776	-4.168324	48.368738	37.495614	8.413890	-8.285744	58.798534	42.209860
-0.135000	-160.147433	-5.066637	-73.570646	0.010524	-0.145261	-0.072638	66.109037	4.078181	-3.839652	15.464378	3.606509	-27.676790	-45.092986	28.336269	6.793175	45.232625	30.597119	26.131857	3.556936	46.125364	30.895583	22.707392	-4.222325	48.457042	37.742848	8.994596	-8.098477	58.490865	42.093382
-0.125000	-160.147433	-5.066637	-73.570646	0.002159	-0.144198	-0.077330	61.934632	2.067820	-4.392822	17.467838	3.678151	-27.756991	-45.624887	27.527752	6.510676	45.766116	30.986857	25.855224	3.493368	46.203315	30.994517	22.954292	-4.246605	48.555700	37.915099	9.531635	-7.813773	58.127238	41.823316
-0.115000	-160.147433	-5.066637	-73.570646	-0.006366	-0.143591	-0.082238	57.568741	-0.463593	-4.882030	19.421203	3.391716	-27.881373	-46.280020	26.359190	6.126380	46.212354	31.249328	25.092781	3.401283	46.235647	31.054789	22.941369	-4.226869	48.538616	37.915657	9.905265	-7.522117	57.781734	41.438768
-0.105000	-160.147433	-5.066637	-73.570646	-0.014957	-0.143362	-0.087352	53.023302	-3.463904	-5.240729	21.176778	2.624862	-27.930175	-46.925290	24.857494	5.730666	46.520922	31.364275	23.834655	3.300517	46.219212	31.070428	22.663151	-4.168185	48.353031	37.712008	9.985655	-7.345936	57.634295	41.104547
